<?xml version="1.0" standalone="no"?>
<!DOCTYPE svg PUBLIC "-//W3C//DTD SVG 20010904//EN"

<svg version="1.0" xmlns="http://www.w3.org/2000/svg"
 width="200.000000pt" height="200.000000pt" viewBox="0 0 200.000000 200.000000"
 preserveAspectRatio="xMidYMid meet">
<metadata>
</metadata>
<g transform="translate(0.000000,200.000000) scale(0.100000,-0.100000)"
fill="#fafafa" stroke="none">
<path d="M1030 1459 c-99 -40 -122 -166 -49 -269 9 -13 -4 -50 -59 -175 l-70
-160 -48 -8 c-27 -4 -56 -8 -65 -10 -9 -1 -51 27 -93 63 -63 53 -75 68 -68 85
4 11 6 39 6 62 -5 172 -248 209 -310 48 -14 -38 -15 -54 -6 -93 l11 -47 -90
-91 c-78 -78 -90 -95 -87 -120 2 -22 9 -30 27 -32 19 -3 44 16 120 92 74 74
99 93 111 86 21 -13 104 -12 134 1 22 11 31 6 103 -58 74 -65 79 -71 70 -97
-23 -70 23 -167 93 -196 41 -17 125 -8 158 17 79 59 87 160 21 253 -8 12 5 52
59 175 l70 160 45 5 c24 3 56 13 71 23 26 18 27 18 108 -32 l81 -50 2 -56 c2
-62 21 -96 75 -132 39 -27 116 -31 159 -8 69 35 104 119 81 191 l-12 36 111
112 c85 85 111 117 111 138 0 24 -16 38 -42 38 -6 0 -64 -52 -129 -116 -104
-103 -119 -115 -137 -105 -32 17 -94 13 -135 -9 l-38 -21 -81 50 -80 49 -1 55
c-2 62 -22 97 -77 135 -36 24 -104 29 -150 11z m109 -79 c10 -5 24 -23 31 -40
34 -82 -69 -150 -130 -85 -63 67 18 169 99 125z m-666 -280 c33 -26 41 -63 23
-99 -16 -31 -34 -41 -71 -41 -37 0 -55 10 -70 41 -21 40 -19 57 14 90 34 34
68 37 104 9z m1118 -9 c33 -33 35 -50 14 -90 -15 -31 -33 -41 -70 -41 -37 0
-55 10 -70 41 -21 40 -19 57 14 90 38 38 74 38 112 0z m-711 -346 c68 -73 -35
-183 -108 -115 -40 38 -37 93 7 127 27 21 75 15 101 -12z"/>
</g>
</svg>
